<mxfile host="app.diagrams.net" agent="Mozilla/5.0 (X11; Linux x86_64; rv:140.0) Gecko/20100101 Firefox/140.0" version="27.2.0">
  <diagram name="Page-1" id="9V9NyGJHSvx_J4O3z-Qf">
    <mxGraphModel dx="922" dy="858" grid="1" gridSize="10" guides="1" tooltips="1" connect="1" arrows="1" fold="1" page="1" pageScale="1" pageWidth="850" pageHeight="1100" math="0" shadow="0">
      <root>
        <mxCell id="0" />
        <mxCell id="1" parent="0" />
        <mxCell id="vaKcFGWtGVncHaMUVTSr-1" value="Food" style="swimlane;fontStyle=1;align=center;verticalAlign=top;childLayout=stackLayout;horizontal=1;startSize=26;horizontalStack=0;resizeParent=1;resizeParentMax=0;resizeLast=0;collapsible=1;marginBottom=0;whiteSpace=wrap;html=1;fillColor=#1ba1e2;fontColor=#ffffff;strokeColor=#006EAF;" vertex="1" parent="1">
          <mxGeometry x="70" y="96" width="160" height="112" as="geometry">
            <mxRectangle x="120" y="120" width="70" height="30" as="alternateBounds" />
          </mxGeometry>
        </mxCell>
        <mxCell id="vaKcFGWtGVncHaMUVTSr-8" value="&lt;div&gt;-&amp;nbsp;price : float&lt;/div&gt;" style="text;strokeColor=none;fillColor=none;align=left;verticalAlign=top;spacingLeft=4;spacingRight=4;overflow=hidden;rotatable=0;points=[[0,0.5],[1,0.5]];portConstraint=eastwest;whiteSpace=wrap;html=1;" vertex="1" parent="vaKcFGWtGVncHaMUVTSr-1">
          <mxGeometry y="26" width="160" height="26" as="geometry" />
        </mxCell>
        <mxCell id="vaKcFGWtGVncHaMUVTSr-14" value="- image : image" style="text;strokeColor=none;fillColor=none;align=left;verticalAlign=top;spacingLeft=4;spacingRight=4;overflow=hidden;rotatable=0;points=[[0,0.5],[1,0.5]];portConstraint=eastwest;whiteSpace=wrap;html=1;" vertex="1" parent="vaKcFGWtGVncHaMUVTSr-1">
          <mxGeometry y="52" width="160" height="26" as="geometry" />
        </mxCell>
        <mxCell id="vaKcFGWtGVncHaMUVTSr-3" value="" style="line;strokeWidth=1;fillColor=none;align=left;verticalAlign=middle;spacingTop=-1;spacingLeft=3;spacingRight=3;rotatable=0;labelPosition=right;points=[];portConstraint=eastwest;strokeColor=inherit;" vertex="1" parent="vaKcFGWtGVncHaMUVTSr-1">
          <mxGeometry y="78" width="160" height="8" as="geometry" />
        </mxCell>
        <mxCell id="vaKcFGWtGVncHaMUVTSr-4" value="+ method(type): type" style="text;strokeColor=none;fillColor=none;align=left;verticalAlign=top;spacingLeft=4;spacingRight=4;overflow=hidden;rotatable=0;points=[[0,0.5],[1,0.5]];portConstraint=eastwest;whiteSpace=wrap;html=1;" vertex="1" parent="vaKcFGWtGVncHaMUVTSr-1">
          <mxGeometry y="86" width="160" height="26" as="geometry" />
        </mxCell>
        <mxCell id="vaKcFGWtGVncHaMUVTSr-15" value="User" style="swimlane;fontStyle=1;align=center;verticalAlign=top;childLayout=stackLayout;horizontal=1;startSize=26;horizontalStack=0;resizeParent=1;resizeParentMax=0;resizeLast=0;collapsible=1;marginBottom=0;whiteSpace=wrap;html=1;" vertex="1" parent="1">
          <mxGeometry x="360" y="96" width="210" height="244" as="geometry" />
        </mxCell>
        <mxCell id="vaKcFGWtGVncHaMUVTSr-16" value="&lt;div&gt;- userID : string&lt;/div&gt;" style="text;strokeColor=none;fillColor=none;align=left;verticalAlign=top;spacingLeft=4;spacingRight=4;overflow=hidden;rotatable=0;points=[[0,0.5],[1,0.5]];portConstraint=eastwest;whiteSpace=wrap;html=1;" vertex="1" parent="vaKcFGWtGVncHaMUVTSr-15">
          <mxGeometry y="26" width="210" height="26" as="geometry" />
        </mxCell>
        <mxCell id="vaKcFGWtGVncHaMUVTSr-19" value="- username : string&lt;span style=&quot;white-space: pre;&quot;&gt;&#x9;&lt;/span&gt;" style="text;strokeColor=none;fillColor=none;align=left;verticalAlign=top;spacingLeft=4;spacingRight=4;overflow=hidden;rotatable=0;points=[[0,0.5],[1,0.5]];portConstraint=eastwest;whiteSpace=wrap;html=1;" vertex="1" parent="vaKcFGWtGVncHaMUVTSr-15">
          <mxGeometry y="52" width="210" height="28" as="geometry" />
        </mxCell>
        <mxCell id="vaKcFGWtGVncHaMUVTSr-21" value="&lt;div&gt;- address : Address&lt;/div&gt;&lt;div&gt;&lt;br&gt;&lt;/div&gt;" style="text;strokeColor=none;fillColor=none;align=left;verticalAlign=top;spacingLeft=4;spacingRight=4;overflow=hidden;rotatable=0;points=[[0,0.5],[1,0.5]];portConstraint=eastwest;whiteSpace=wrap;html=1;" vertex="1" parent="vaKcFGWtGVncHaMUVTSr-15">
          <mxGeometry y="80" width="210" height="26" as="geometry" />
        </mxCell>
        <mxCell id="vaKcFGWtGVncHaMUVTSr-23" value="&lt;div&gt;- preference : UserPrefernce&lt;/div&gt;" style="text;strokeColor=none;fillColor=none;align=left;verticalAlign=top;spacingLeft=4;spacingRight=4;overflow=hidden;rotatable=0;points=[[0,0.5],[1,0.5]];portConstraint=eastwest;whiteSpace=wrap;html=1;" vertex="1" parent="vaKcFGWtGVncHaMUVTSr-15">
          <mxGeometry y="106" width="210" height="26" as="geometry" />
        </mxCell>
        <mxCell id="vaKcFGWtGVncHaMUVTSr-43" value="&lt;div&gt;~ phoneNum : string&lt;/div&gt;" style="text;strokeColor=none;fillColor=none;align=left;verticalAlign=top;spacingLeft=4;spacingRight=4;overflow=hidden;rotatable=0;points=[[0,0.5],[1,0.5]];portConstraint=eastwest;whiteSpace=wrap;html=1;" vertex="1" parent="vaKcFGWtGVncHaMUVTSr-15">
          <mxGeometry y="132" width="210" height="26" as="geometry" />
        </mxCell>
        <mxCell id="vaKcFGWtGVncHaMUVTSr-47" value="- payment : Payment[ ]" style="text;strokeColor=none;fillColor=none;align=left;verticalAlign=top;spacingLeft=4;spacingRight=4;overflow=hidden;rotatable=0;points=[[0,0.5],[1,0.5]];portConstraint=eastwest;whiteSpace=wrap;html=1;" vertex="1" parent="vaKcFGWtGVncHaMUVTSr-15">
          <mxGeometry y="158" width="210" height="26" as="geometry" />
        </mxCell>
        <mxCell id="vaKcFGWtGVncHaMUVTSr-17" value="" style="line;strokeWidth=1;fillColor=none;align=left;verticalAlign=middle;spacingTop=-1;spacingLeft=3;spacingRight=3;rotatable=0;labelPosition=right;points=[];portConstraint=eastwest;strokeColor=inherit;" vertex="1" parent="vaKcFGWtGVncHaMUVTSr-15">
          <mxGeometry y="184" width="210" height="8" as="geometry" />
        </mxCell>
        <mxCell id="vaKcFGWtGVncHaMUVTSr-18" value="&lt;div&gt;+ register( )&lt;/div&gt;" style="text;strokeColor=none;fillColor=none;align=left;verticalAlign=top;spacingLeft=4;spacingRight=4;overflow=hidden;rotatable=0;points=[[0,0.5],[1,0.5]];portConstraint=eastwest;whiteSpace=wrap;html=1;" vertex="1" parent="vaKcFGWtGVncHaMUVTSr-15">
          <mxGeometry y="192" width="210" height="26" as="geometry" />
        </mxCell>
        <mxCell id="vaKcFGWtGVncHaMUVTSr-44" value="+ login( )" style="text;strokeColor=none;fillColor=none;align=left;verticalAlign=top;spacingLeft=4;spacingRight=4;overflow=hidden;rotatable=0;points=[[0,0.5],[1,0.5]];portConstraint=eastwest;whiteSpace=wrap;html=1;" vertex="1" parent="vaKcFGWtGVncHaMUVTSr-15">
          <mxGeometry y="218" width="210" height="26" as="geometry" />
        </mxCell>
        <mxCell id="vaKcFGWtGVncHaMUVTSr-31" value="Adress" style="swimlane;fontStyle=1;align=center;verticalAlign=top;childLayout=stackLayout;horizontal=1;startSize=26;horizontalStack=0;resizeParent=1;resizeParentMax=0;resizeLast=0;collapsible=1;marginBottom=0;whiteSpace=wrap;html=1;" vertex="1" parent="1">
          <mxGeometry x="290" y="490" width="210" height="272" as="geometry" />
        </mxCell>
        <mxCell id="vaKcFGWtGVncHaMUVTSr-32" value="&lt;div&gt;- city : string&lt;/div&gt;" style="text;strokeColor=none;fillColor=none;align=left;verticalAlign=top;spacingLeft=4;spacingRight=4;overflow=hidden;rotatable=0;points=[[0,0.5],[1,0.5]];portConstraint=eastwest;whiteSpace=wrap;html=1;" vertex="1" parent="vaKcFGWtGVncHaMUVTSr-31">
          <mxGeometry y="26" width="210" height="26" as="geometry" />
        </mxCell>
        <mxCell id="vaKcFGWtGVncHaMUVTSr-33" value="- street : string" style="text;strokeColor=none;fillColor=none;align=left;verticalAlign=top;spacingLeft=4;spacingRight=4;overflow=hidden;rotatable=0;points=[[0,0.5],[1,0.5]];portConstraint=eastwest;whiteSpace=wrap;html=1;" vertex="1" parent="vaKcFGWtGVncHaMUVTSr-31">
          <mxGeometry y="52" width="210" height="28" as="geometry" />
        </mxCell>
        <mxCell id="vaKcFGWtGVncHaMUVTSr-34" value="- province : string" style="text;strokeColor=none;fillColor=none;align=left;verticalAlign=top;spacingLeft=4;spacingRight=4;overflow=hidden;rotatable=0;points=[[0,0.5],[1,0.5]];portConstraint=eastwest;whiteSpace=wrap;html=1;" vertex="1" parent="vaKcFGWtGVncHaMUVTSr-31">
          <mxGeometry y="80" width="210" height="26" as="geometry" />
        </mxCell>
        <mxCell id="vaKcFGWtGVncHaMUVTSr-35" value="&lt;div&gt;- ZIPcode : string&lt;/div&gt;" style="text;strokeColor=none;fillColor=none;align=left;verticalAlign=top;spacingLeft=4;spacingRight=4;overflow=hidden;rotatable=0;points=[[0,0.5],[1,0.5]];portConstraint=eastwest;whiteSpace=wrap;html=1;" vertex="1" parent="vaKcFGWtGVncHaMUVTSr-31">
          <mxGeometry y="106" width="210" height="26" as="geometry" />
        </mxCell>
        <mxCell id="vaKcFGWtGVncHaMUVTSr-36" value="&lt;div&gt;- house number : string&lt;/div&gt;" style="text;strokeColor=none;fillColor=none;align=left;verticalAlign=top;spacingLeft=4;spacingRight=4;overflow=hidden;rotatable=0;points=[[0,0.5],[1,0.5]];portConstraint=eastwest;whiteSpace=wrap;html=1;" vertex="1" parent="vaKcFGWtGVncHaMUVTSr-31">
          <mxGeometry y="132" width="210" height="28" as="geometry" />
        </mxCell>
        <mxCell id="vaKcFGWtGVncHaMUVTSr-37" value="- latitude : float" style="text;strokeColor=none;fillColor=none;align=left;verticalAlign=top;spacingLeft=4;spacingRight=4;overflow=hidden;rotatable=0;points=[[0,0.5],[1,0.5]];portConstraint=eastwest;whiteSpace=wrap;html=1;" vertex="1" parent="vaKcFGWtGVncHaMUVTSr-31">
          <mxGeometry y="160" width="210" height="26" as="geometry" />
        </mxCell>
        <mxCell id="vaKcFGWtGVncHaMUVTSr-38" value="- longitude : float" style="text;strokeColor=none;fillColor=none;align=left;verticalAlign=top;spacingLeft=4;spacingRight=4;overflow=hidden;rotatable=0;points=[[0,0.5],[1,0.5]];portConstraint=eastwest;whiteSpace=wrap;html=1;" vertex="1" parent="vaKcFGWtGVncHaMUVTSr-31">
          <mxGeometry y="186" width="210" height="26" as="geometry" />
        </mxCell>
        <mxCell id="vaKcFGWtGVncHaMUVTSr-39" value="" style="line;strokeWidth=1;fillColor=none;align=left;verticalAlign=middle;spacingTop=-1;spacingLeft=3;spacingRight=3;rotatable=0;labelPosition=right;points=[];portConstraint=eastwest;strokeColor=inherit;" vertex="1" parent="vaKcFGWtGVncHaMUVTSr-31">
          <mxGeometry y="212" width="210" height="8" as="geometry" />
        </mxCell>
        <mxCell id="vaKcFGWtGVncHaMUVTSr-40" value="&lt;div&gt;~ getAddress()&lt;/div&gt;&lt;div&gt;&lt;br&gt;&lt;/div&gt;" style="text;strokeColor=none;fillColor=none;align=left;verticalAlign=top;spacingLeft=4;spacingRight=4;overflow=hidden;rotatable=0;points=[[0,0.5],[1,0.5]];portConstraint=eastwest;whiteSpace=wrap;html=1;" vertex="1" parent="vaKcFGWtGVncHaMUVTSr-31">
          <mxGeometry y="220" width="210" height="26" as="geometry" />
        </mxCell>
        <mxCell id="vaKcFGWtGVncHaMUVTSr-41" value="+ calculate_distance(Address)" style="text;strokeColor=none;fillColor=none;align=left;verticalAlign=top;spacingLeft=4;spacingRight=4;overflow=hidden;rotatable=0;points=[[0,0.5],[1,0.5]];portConstraint=eastwest;whiteSpace=wrap;html=1;" vertex="1" parent="vaKcFGWtGVncHaMUVTSr-31">
          <mxGeometry y="246" width="210" height="26" as="geometry" />
        </mxCell>
        <mxCell id="vaKcFGWtGVncHaMUVTSr-48" value="Payment" style="swimlane;fontStyle=1;align=center;verticalAlign=top;childLayout=stackLayout;horizontal=1;startSize=26;horizontalStack=0;resizeParent=1;resizeParentMax=0;resizeLast=0;collapsible=1;marginBottom=0;whiteSpace=wrap;html=1;" vertex="1" parent="1">
          <mxGeometry x="670" y="96" width="210" height="272" as="geometry" />
        </mxCell>
        <mxCell id="vaKcFGWtGVncHaMUVTSr-49" value="- paymentID: string" style="text;strokeColor=none;fillColor=none;align=left;verticalAlign=top;spacingLeft=4;spacingRight=4;overflow=hidden;rotatable=0;points=[[0,0.5],[1,0.5]];portConstraint=eastwest;whiteSpace=wrap;html=1;" vertex="1" parent="vaKcFGWtGVncHaMUVTSr-48">
          <mxGeometry y="26" width="210" height="26" as="geometry" />
        </mxCell>
        <mxCell id="vaKcFGWtGVncHaMUVTSr-50" value="- orderID : string" style="text;strokeColor=none;fillColor=none;align=left;verticalAlign=top;spacingLeft=4;spacingRight=4;overflow=hidden;rotatable=0;points=[[0,0.5],[1,0.5]];portConstraint=eastwest;whiteSpace=wrap;html=1;" vertex="1" parent="vaKcFGWtGVncHaMUVTSr-48">
          <mxGeometry y="52" width="210" height="28" as="geometry" />
        </mxCell>
        <mxCell id="vaKcFGWtGVncHaMUVTSr-53" value="- amount : double" style="text;strokeColor=none;fillColor=none;align=left;verticalAlign=top;spacingLeft=4;spacingRight=4;overflow=hidden;rotatable=0;points=[[0,0.5],[1,0.5]];portConstraint=eastwest;whiteSpace=wrap;html=1;" vertex="1" parent="vaKcFGWtGVncHaMUVTSr-48">
          <mxGeometry y="80" width="210" height="26" as="geometry" />
        </mxCell>
        <mxCell id="vaKcFGWtGVncHaMUVTSr-61" value="- paymentMethod : PayMethod" style="text;strokeColor=none;fillColor=none;align=left;verticalAlign=top;spacingLeft=4;spacingRight=4;overflow=hidden;rotatable=0;points=[[0,0.5],[1,0.5]];portConstraint=eastwest;whiteSpace=wrap;html=1;" vertex="1" parent="vaKcFGWtGVncHaMUVTSr-48">
          <mxGeometry y="106" width="210" height="26" as="geometry" />
        </mxCell>
        <mxCell id="vaKcFGWtGVncHaMUVTSr-62" value="- paymentStatus&amp;nbsp; : string" style="text;strokeColor=none;fillColor=none;align=left;verticalAlign=top;spacingLeft=4;spacingRight=4;overflow=hidden;rotatable=0;points=[[0,0.5],[1,0.5]];portConstraint=eastwest;whiteSpace=wrap;html=1;" vertex="1" parent="vaKcFGWtGVncHaMUVTSr-48">
          <mxGeometry y="132" width="210" height="26" as="geometry" />
        </mxCell>
        <mxCell id="vaKcFGWtGVncHaMUVTSr-63" value="- amount : double" style="text;strokeColor=none;fillColor=none;align=left;verticalAlign=top;spacingLeft=4;spacingRight=4;overflow=hidden;rotatable=0;points=[[0,0.5],[1,0.5]];portConstraint=eastwest;whiteSpace=wrap;html=1;" vertex="1" parent="vaKcFGWtGVncHaMUVTSr-48">
          <mxGeometry y="158" width="210" height="26" as="geometry" />
        </mxCell>
        <mxCell id="vaKcFGWtGVncHaMUVTSr-55" value="" style="line;strokeWidth=1;fillColor=none;align=left;verticalAlign=middle;spacingTop=-1;spacingLeft=3;spacingRight=3;rotatable=0;labelPosition=right;points=[];portConstraint=eastwest;strokeColor=inherit;" vertex="1" parent="vaKcFGWtGVncHaMUVTSr-48">
          <mxGeometry y="184" width="210" height="8" as="geometry" />
        </mxCell>
        <mxCell id="vaKcFGWtGVncHaMUVTSr-56" value="+ pay( order ) : boolean" style="text;strokeColor=none;fillColor=none;align=left;verticalAlign=top;spacingLeft=4;spacingRight=4;overflow=hidden;rotatable=0;points=[[0,0.5],[1,0.5]];portConstraint=eastwest;whiteSpace=wrap;html=1;" vertex="1" parent="vaKcFGWtGVncHaMUVTSr-48">
          <mxGeometry y="192" width="210" height="28" as="geometry" />
        </mxCell>
        <mxCell id="vaKcFGWtGVncHaMUVTSr-64" value="+ genQR()" style="text;strokeColor=none;fillColor=none;align=left;verticalAlign=top;spacingLeft=4;spacingRight=4;overflow=hidden;rotatable=0;points=[[0,0.5],[1,0.5]];portConstraint=eastwest;whiteSpace=wrap;html=1;" vertex="1" parent="vaKcFGWtGVncHaMUVTSr-48">
          <mxGeometry y="220" width="210" height="26" as="geometry" />
        </mxCell>
        <mxCell id="vaKcFGWtGVncHaMUVTSr-57" value="+ transaction()" style="text;strokeColor=none;fillColor=none;align=left;verticalAlign=top;spacingLeft=4;spacingRight=4;overflow=hidden;rotatable=0;points=[[0,0.5],[1,0.5]];portConstraint=eastwest;whiteSpace=wrap;html=1;" vertex="1" parent="vaKcFGWtGVncHaMUVTSr-48">
          <mxGeometry y="246" width="210" height="26" as="geometry" />
        </mxCell>
        <mxCell id="vaKcFGWtGVncHaMUVTSr-65" value="&amp;nbsp;" style="text;whiteSpace=wrap;html=1;" vertex="1" parent="1">
          <mxGeometry x="150" y="50" width="40" height="40" as="geometry" />
        </mxCell>
        <mxCell id="vaKcFGWtGVncHaMUVTSr-66" value="Order" style="swimlane;fontStyle=1;align=center;verticalAlign=top;childLayout=stackLayout;horizontal=1;startSize=26;horizontalStack=0;resizeParent=1;resizeParentMax=0;resizeLast=0;collapsible=1;marginBottom=0;whiteSpace=wrap;html=1;" vertex="1" parent="1">
          <mxGeometry x="720" y="480" width="160" height="86" as="geometry" />
        </mxCell>
        <mxCell id="vaKcFGWtGVncHaMUVTSr-67" value="+ field: type" style="text;strokeColor=none;fillColor=none;align=left;verticalAlign=top;spacingLeft=4;spacingRight=4;overflow=hidden;rotatable=0;points=[[0,0.5],[1,0.5]];portConstraint=eastwest;whiteSpace=wrap;html=1;" vertex="1" parent="vaKcFGWtGVncHaMUVTSr-66">
          <mxGeometry y="26" width="160" height="26" as="geometry" />
        </mxCell>
        <mxCell id="vaKcFGWtGVncHaMUVTSr-68" value="" style="line;strokeWidth=1;fillColor=none;align=left;verticalAlign=middle;spacingTop=-1;spacingLeft=3;spacingRight=3;rotatable=0;labelPosition=right;points=[];portConstraint=eastwest;strokeColor=inherit;" vertex="1" parent="vaKcFGWtGVncHaMUVTSr-66">
          <mxGeometry y="52" width="160" height="8" as="geometry" />
        </mxCell>
        <mxCell id="vaKcFGWtGVncHaMUVTSr-69" value="+ method(type): type" style="text;strokeColor=none;fillColor=none;align=left;verticalAlign=top;spacingLeft=4;spacingRight=4;overflow=hidden;rotatable=0;points=[[0,0.5],[1,0.5]];portConstraint=eastwest;whiteSpace=wrap;html=1;" vertex="1" parent="vaKcFGWtGVncHaMUVTSr-66">
          <mxGeometry y="60" width="160" height="26" as="geometry" />
        </mxCell>
        <mxCell id="vaKcFGWtGVncHaMUVTSr-70" value="Rider" style="swimlane;fontStyle=1;align=center;verticalAlign=top;childLayout=stackLayout;horizontal=1;startSize=26;horizontalStack=0;resizeParent=1;resizeParentMax=0;resizeLast=0;collapsible=1;marginBottom=0;whiteSpace=wrap;html=1;" vertex="1" parent="1">
          <mxGeometry x="720" y="676" width="160" height="86" as="geometry" />
        </mxCell>
        <mxCell id="vaKcFGWtGVncHaMUVTSr-71" value="+ field: type" style="text;strokeColor=none;fillColor=none;align=left;verticalAlign=top;spacingLeft=4;spacingRight=4;overflow=hidden;rotatable=0;points=[[0,0.5],[1,0.5]];portConstraint=eastwest;whiteSpace=wrap;html=1;" vertex="1" parent="vaKcFGWtGVncHaMUVTSr-70">
          <mxGeometry y="26" width="160" height="26" as="geometry" />
        </mxCell>
        <mxCell id="vaKcFGWtGVncHaMUVTSr-72" value="" style="line;strokeWidth=1;fillColor=none;align=left;verticalAlign=middle;spacingTop=-1;spacingLeft=3;spacingRight=3;rotatable=0;labelPosition=right;points=[];portConstraint=eastwest;strokeColor=inherit;" vertex="1" parent="vaKcFGWtGVncHaMUVTSr-70">
          <mxGeometry y="52" width="160" height="8" as="geometry" />
        </mxCell>
        <mxCell id="vaKcFGWtGVncHaMUVTSr-73" value="+ method(type): type" style="text;strokeColor=none;fillColor=none;align=left;verticalAlign=top;spacingLeft=4;spacingRight=4;overflow=hidden;rotatable=0;points=[[0,0.5],[1,0.5]];portConstraint=eastwest;whiteSpace=wrap;html=1;" vertex="1" parent="vaKcFGWtGVncHaMUVTSr-70">
          <mxGeometry y="60" width="160" height="26" as="geometry" />
        </mxCell>
      </root>
    </mxGraphModel>
  </diagram>
</mxfile>
